# xmcd
#
# Track frame offsets: 
#        150
#        13244
#        30381
#        49338
#        68110
#        84275
#        100099
#        118970
#        138026
#        154628
#        169435
#        183355
#        197102
#        217302
#        233393
#        244440
#
# Disc length: 3561 seconds
#
# Revision: 0
# Processed by: cddbd v1.5.2PL0 Copyright (c) Steve Scherf et al.
# Submitted via: ExactAudioCopy v0.95b3
#
DISCID=dd0de710
DTITLE=Uma2rman - Лучшие
DYEAR=1900
DGENRE=Blues
TTITLE0=Прасковья
TTITLE1=Ночной дозор
TTITLE2=Уматурман
TTITLE3=Тайд
TTITLE4=Ты ушла
TTITLE5=Кино
TTITLE6=Скажи
TTITLE7=Ты далеко
TTITLE8=Тенис
TTITLE9=Не позвониш...
TTITLE10=В городе лето
TTITLE11=Папины дочки
TTITLE12=Куда привозят мечьты
TTITLE13=Дайте сигарету
TTITLE14=Любовь на сноуборде
TTITLE15=Проститься
EXTD=
EXTT0=
EXTT1=
EXTT2=
EXTT3=
EXTT4=
EXTT5=
EXTT6=
EXTT7=
EXTT8=
EXTT9=
EXTT10=
EXTT11=
EXTT12=
EXTT13=
EXTT14=
EXTT15=
PLAYORDER=
